PathFileType	4	(x/y/z)	S01_PSF_T17.trc
DataRate	CameraRate	NumFrames	NumMarkers	Units	OrigDataRate	OrigDataStartFrame	OrigNumFrames
240	240	4	51	mm	240	91	363
Frame#	Time	Sternum			R.Acromium			L.Acromium			Top.Head			R.ASIS			L.ASIS			R.PSIS			L.PSIS			R.Great.Tro			L.Great.Tro			R.Iliac.Crest			L.Iliac.Crest			V.Sacral			R.Thigh.Upper.Post			R.Thigh.Lower.Ant			R.Thigh.Lower.Post			R.Thigh.Upper.Ant			R.Knee.Lat			R.Knee.Med			R.Shank.Upper.Post			R.Shank.Lower.Ant			R.Shank.Lower.Post			R.Shank.Upper.Ant			R.Ankle.Lat			R.Ankle.Med			R.Heel.Upper			R.Heel.Med			R.Heel.Lat			R.Toe.Lat			R.Toe.Med			R.Toe.Tip			L.Thigh.Upper.Post			L.Thigh.Lower.Ant			L.Thigh.Lower.Post			L.Thigh.Upper.Ant			L.Knee.Lat			L.Knee.Med			L.Shank.Upper.Post			L.Shank.Lower.Ant			L.Shank.Lower.Post			L.Shank.Upper.Ant			L.Ankle.Lat			L.Ankle.Med			L.Heel.Upper			L.Heel.Med			L.Heel.Lat			L.Toe.Lat			L.Toe.Med			L.Toe.Tip			Cervical.Spine			Back			
		X1	Y1	Z1	X2	Y2	Z2	X3	Y3	Z3	X4	Y4	Z4	X5	Y5	Z5	X6	Y6	Z6	X7	Y7	Z7	X8	Y8	Z8	X9	Y9	Z9	X10	Y10	Z10	X11	Y11	Z11	X12	Y12	Z12	X13	Y13	Z13	X14	Y14	Z14	X15	Y15	Z15	X16	Y16	Z16	X17	Y17	Z17	X18	Y18	Z18	X19	Y19	Z19	X20	Y20	Z20	X21	Y21	Z21	X22	Y22	Z22	X23	Y23	Z23	X24	Y24	Z24	X25	Y25	Z25	X26	Y26	Z26	X27	Y27	Z27	X28	Y28	Z28	X29	Y29	Z29	X30	Y30	Z30	X31	Y31	Z31	X32	Y32	Z32	X33	Y33	Z33	X34	Y34	Z34	X35	Y35	Z35	X36	Y36	Z36	X37	Y37	Z37	X38	Y38	Z38	X39	Y39	Z39	X40	Y40	Z40	X41	Y41	Z41	X42	Y42	Z42	X43	Y43	Z43	X44	Y44	Z44	X45	Y45	Z45	X46	Y46	Z46	X47	Y47	Z47	X48	Y48	Z48	X49	Y49	Z49	X50	Y50	Z50	X51	Y51	Z51	

91	0.375	-720.92	1246	279.01	-846.11	1488.7	457.9	-865.29	1509	127.6	-838.27	1817.8	290.36	-765.03	998.44	429.27	-763.42	992.08	160.61	-1006	1021.2	340.77	-1010.5	1026.9	238.43	-837.04	941.58	512.24	-878.28	945.01	85.998	-861.29	1085.9	496.35	-876.83	1069.5	88.089	-1020.4	988.46	285.61	-724.32	653.8	479.43	-632.52	618.9	446.09	-686.24	575.91	453.81	-667.76	699.14	471.02	-640	530.18	447.59	-642.29	535.39	303.12	-653.59	363.15	463.45	-575.23	298	420.51	-641.26	294.2	450.89	-591.82	367.42	438.77	-592.12	101.2	413.53	-561.36	113.24	320.82	-654.93	65.086	350.84	-634.05	38.186	322.4	-639.87	37.496	387.08	-452.3	50.662	446.32	-421.12	66.192	324.97	-363.32	95.62	380.51	-975.8	685.86	115.99	-905.81	598.58	107.29	-982.7	595.46	130.21	-908.61	693.56	91.573	-963.13	502.79	112.9	-924.24	493.19	253.86	-1082.4	405.66	102.53	-1072.9	297.31	124.03	-1121.6	337.8	107.96	-1032.9	363.82	113.16	-1241.1	151.89	149.85	-1208.8	155.47	245.87	-1319	148.85	198.54	-1314.6	123.21	232.57	-1319.9	120.66	170.95	-1129	40.265	136.79	-1103.9	45.585	258.73	-1039.8	42.764	207.77	-940.66	1556.1	297.83	-1030.4	1245	306.1
92	0.37917	-714.72	1246.1	279.56	-840.02	1488.2	459.16	-859.74	1509	128.79	-832.49	1817.8	291.9	-758.3	998.37	429.58	-757.29	991.93	161.06	-999.57	1020.9	341.76	-1004.1	1026.3	239.39	-829.83	941.58	512.79	-872.12	944.35	86.68	-854.16	1085.6	497.19	-870.69	1069.4	88.849	-1013.9	987.89	286.69	-717.6	653.86	479.58	-625.91	618.87	446.09	-679.65	575.93	453.96	-660.99	699.14	471.17	-633.38	530.13	447.56	-636.49	535.34	303.22	-648.14	363.15	463.67	-570.72	297.23	420.19	-636.56	294.08	451.05	-586.51	366.82	438.54	-590.32	100.85	413.48	-559.58	112.35	320.63	-654.05	65.862	350.87	-633.65	38.561	322.42	-639.43	38.01	387.1	-451.3	48.264	446.19	-419.93	62.802	324.58	-361.42	91.147	379.99	-968.14	684.69	116.3	-897.74	597.89	106.69	-974.42	594.2	130.17	-901.08	692.94	91.574	-954.57	501.94	112.17	-914.68	491.73	252.79	-1075.1	406.79	102.18	-1067.2	298.24	123.25	-1115.3	339.55	107.69	-1026.3	364.1	112.41	-1237.2	155.14	149.42	-1204.6	158.29	245.27	-1314.8	154.42	198.4	-1311	128.99	232.59	-1316.7	126.17	171.04	-1128.7	40.658	136.82	-1103.5	45.998	258.79	-1039.6	42.19	207.69	-934.88	1555.9	299.32	-1024.3	1244.6	307.24
93	0.38333	-708.54	1246.2	280.11	-833.91	1487.8	460.41	-854.2	1509.1	129.98	-826.72	1817.7	293.43	-751.61	998.4	429.92	-751.2	991.86	161.54	-993.16	1020.7	342.72	-997.82	1025.7	240.31	-822.7	941.71	513.35	-865.99	943.72	87.359	-847.06	1085.5	498.02	-864.53	1069.4	89.629	-1007.4	987.4	287.75	-710.91	654	479.83	-619.33	618.93	446.15	-673.09	576.03	454.18	-654.26	699.23	471.38	-626.79	530.14	447.58	-630.69	535.4	303.37	-642.8	363.23	463.95	-566.33	296.53	419.92	-631.97	294.05	451.27	-581.3	366.29	438.36	-588.66	100.57	413.45	-557.95	111.6	320.48	-653.25	66.612	350.92	-633.28	38.961	322.47	-639.03	38.515	387.15	-450.39	46.108	446.09	-418.86	59.668	324.22	-359.7	86.993	379.51	-960.35	683.48	116.57	-889.49	597.22	106.01	-965.95	592.92	130.07	-893.43	692.33	91.526	-945.78	501.1	111.35	-904.83	490.26	251.62	-1067.4	407.97	101.78	-1061.2	299.24	122.41	-1108.7	341.38	107.38	-1019.4	364.43	111.6	-1232.9	158.52	148.95	-1200.1	161.21	244.63	-1310.2	160.23	198.22	-1307	135.06	232.58	-1313.1	131.95	171.1	-1128.2	41.14	136.85	-1103	46.488	258.84	-1039.4	41.568	207.59	-929.11	1555.7	300.81	-1018.2	1244.4	308.38
94	0.3875	-702.38	1246.5	280.64	-827.8	1487.5	461.64	-848.64	1509.4	131.17	-820.96	1817.8	294.97	-744.97	998.54	430.27	-745.14	991.88	162.05	-986.79	1020.7	343.65	-991.53	1025.1	241.19	-815.66	941.96	513.91	-859.87	943.12	88.037	-840	1085.5	498.83	-858.36	1069.6	90.426	-1001	986.99	288.78	-704.27	654.22	480.15	-612.78	619.07	446.28	-666.56	576.22	454.47	-647.58	699.4	471.67	-620.25	530.22	447.64	-624.87	535.54	303.57	-637.57	363.37	464.28	-562.08	295.91	419.69	-627.51	294.09	451.54	-576.22	365.82	438.24	-587.13	100.36	413.42	-556.47	110.96	320.35	-652.52	67.324	351	-632.94	39.373	322.54	-638.66	39.002	387.21	-449.57	44.198	446.02	-417.91	56.802	323.9	-358.15	83.178	379.07	-952.42	682.26	116.79	-881.09	596.58	105.26	-957.31	591.61	129.91	-885.66	691.75	91.428	-936.75	500.27	110.45	-894.7	488.77	250.34	-1059.4	409.21	101.32	-1054.9	300.32	121.5	-1101.9	343.3	107.03	-1012.2	364.82	110.73	-1228.4	162.04	148.44	-1195.2	164.25	243.94	-1305.2	166.28	198.01	-1302.7	141.39	232.55	-1309.2	138	171.14	-1127.7	41.726	136.86	-1102.4	47.065	258.87	-1039.1	40.898	207.47	-923.34	1555.7	302.3	-1012.1	1244.2	309.53
